<svg id="visual" viewBox="0 0 1020 650" width="1020" height="650" xmlns="http://www.w3.org/2000/svg" xmlns:xlink="http://www.w3.org/1999/xlink" version="1.1"><rect x="0" y="0" width="1020" height="650" fill="#fcfcfc"></rect><defs><linearGradient id="grad1_0" x1="36.3%" y1="100%" x2="100%" y2="0%"><stop offset="18.615384615384613%" stop-color="#1207ef" stop-opacity="1"></stop><stop offset="81.38461538461539%" stop-color="#1207ef" stop-opacity="1"></stop></linearGradient></defs><defs><linearGradient id="grad1_1" x1="36.3%" y1="100%" x2="100%" y2="0%"><stop offset="18.615384615384613%" stop-color="#1207ef" stop-opacity="1"></stop><stop offset="81.38461538461539%" stop-color="#5d37f2" stop-opacity="1"></stop></linearGradient></defs><defs><linearGradient id="grad1_2" x1="36.3%" y1="100%" x2="100%" y2="0%"><stop offset="18.615384615384613%" stop-color="#8359f5" stop-opacity="1"></stop><stop offset="81.38461538461539%" stop-color="#5d37f2" stop-opacity="1"></stop></linearGradient></defs><defs><linearGradient id="grad1_3" x1="36.3%" y1="100%" x2="100%" y2="0%"><stop offset="18.615384615384613%" stop-color="#8359f5" stop-opacity="1"></stop><stop offset="81.38461538461539%" stop-color="#a179f8" stop-opacity="1"></stop></linearGradient></defs><defs><linearGradient id="grad1_4" x1="36.3%" y1="100%" x2="100%" y2="0%"><stop offset="18.615384615384613%" stop-color="#bb99fa" stop-opacity="1"></stop><stop offset="81.38461538461539%" stop-color="#a179f8" stop-opacity="1"></stop></linearGradient></defs><defs><linearGradient id="grad1_5" x1="36.3%" y1="100%" x2="100%" y2="0%"><stop offset="18.615384615384613%" stop-color="#bb99fa" stop-opacity="1"></stop><stop offset="81.38461538461539%" stop-color="#d2bafb" stop-opacity="1"></stop></linearGradient></defs><defs><linearGradient id="grad1_6" x1="36.3%" y1="100%" x2="100%" y2="0%"><stop offset="18.615384615384613%" stop-color="#e8dbfc" stop-opacity="1"></stop><stop offset="81.38461538461539%" stop-color="#d2bafb" stop-opacity="1"></stop></linearGradient></defs><defs><linearGradient id="grad1_7" x1="36.3%" y1="100%" x2="100%" y2="0%"><stop offset="18.615384615384613%" stop-color="#e8dbfc" stop-opacity="1"></stop><stop offset="81.38461538461539%" stop-color="#fcfcfc" stop-opacity="1"></stop></linearGradient></defs><defs><linearGradient id="grad2_0" x1="0%" y1="100%" x2="63.7%" y2="0%"><stop offset="18.615384615384613%" stop-color="#1207ef" stop-opacity="1"></stop><stop offset="81.38461538461539%" stop-color="#1207ef" stop-opacity="1"></stop></linearGradient></defs><defs><linearGradient id="grad2_1" x1="0%" y1="100%" x2="63.7%" y2="0%"><stop offset="18.615384615384613%" stop-color="#5d37f2" stop-opacity="1"></stop><stop offset="81.38461538461539%" stop-color="#1207ef" stop-opacity="1"></stop></linearGradient></defs><defs><linearGradient id="grad2_2" x1="0%" y1="100%" x2="63.7%" y2="0%"><stop offset="18.615384615384613%" stop-color="#5d37f2" stop-opacity="1"></stop><stop offset="81.38461538461539%" stop-color="#8359f5" stop-opacity="1"></stop></linearGradient></defs><defs><linearGradient id="grad2_3" x1="0%" y1="100%" x2="63.7%" y2="0%"><stop offset="18.615384615384613%" stop-color="#a179f8" stop-opacity="1"></stop><stop offset="81.38461538461539%" stop-color="#8359f5" stop-opacity="1"></stop></linearGradient></defs><defs><linearGradient id="grad2_4" x1="0%" y1="100%" x2="63.7%" y2="0%"><stop offset="18.615384615384613%" stop-color="#a179f8" stop-opacity="1"></stop><stop offset="81.38461538461539%" stop-color="#bb99fa" stop-opacity="1"></stop></linearGradient></defs><defs><linearGradient id="grad2_5" x1="0%" y1="100%" x2="63.7%" y2="0%"><stop offset="18.615384615384613%" stop-color="#d2bafb" stop-opacity="1"></stop><stop offset="81.38461538461539%" stop-color="#bb99fa" stop-opacity="1"></stop></linearGradient></defs><defs><linearGradient id="grad2_6" x1="0%" y1="100%" x2="63.7%" y2="0%"><stop offset="18.615384615384613%" stop-color="#d2bafb" stop-opacity="1"></stop><stop offset="81.38461538461539%" stop-color="#e8dbfc" stop-opacity="1"></stop></linearGradient></defs><defs><linearGradient id="grad2_7" x1="0%" y1="100%" x2="63.7%" y2="0%"><stop offset="18.615384615384613%" stop-color="#fcfcfc" stop-opacity="1"></stop><stop offset="81.38461538461539%" stop-color="#e8dbfc" stop-opacity="1"></stop></linearGradient></defs><g transform="translate(1020, 650)"><path d="M-453.6 0C-454.7 -28.3 -455.9 -56.6 -436.3 -76.9C-416.7 -97.2 -376.3 -109.5 -368.4 -134.1C-360.4 -158.6 -384.9 -195.3 -381.9 -220.5C-378.9 -245.7 -348.4 -259.3 -324.8 -272.5C-301.2 -285.8 -284.4 -298.8 -271.9 -324C-259.4 -349.3 -251.1 -386.8 -226.8 -392.8C-202.5 -398.8 -162.3 -373.2 -134.4 -369.3C-106.5 -365.4 -91 -383.2 -70.7 -400.8C-50.3 -418.5 -25.2 -436 0 -453.6L0 0Z" fill="#f2ebfc"></path><path d="M-396.9 0C-397.9 -24.8 -398.9 -49.5 -381.7 -67.3C-364.6 -85.1 -329.3 -95.9 -322.3 -117.3C-315.4 -138.8 -336.8 -170.9 -334.2 -192.9C-331.6 -215 -304.9 -226.9 -284.2 -238.5C-263.5 -250.1 -248.9 -261.4 -237.9 -283.5C-226.9 -305.6 -219.7 -338.5 -198.4 -343.7C-177.2 -348.9 -142 -326.6 -117.6 -323.1C-93.2 -319.7 -79.6 -335.3 -61.8 -350.7C-44 -366.2 -22 -381.5 0 -396.9L0 0Z" fill="#ddcafb"></path><path d="M-340.2 0C-341 -21.2 -341.9 -42.5 -327.2 -57.7C-312.5 -72.9 -282.2 -82.2 -276.3 -100.6C-270.3 -118.9 -288.7 -146.5 -286.4 -165.4C-284.2 -184.2 -261.3 -194.4 -243.6 -204.4C-225.9 -214.4 -213.3 -224.1 -203.9 -243C-194.5 -262 -188.3 -290.1 -170.1 -294.6C-151.9 -299.1 -121.7 -279.9 -100.8 -277C-79.9 -274 -68.3 -287.4 -53 -300.6C-37.7 -313.9 -18.9 -327 0 -340.2L0 0Z" fill="#c7a9fa"></path><path d="M-283.5 0C-284.2 -17.7 -284.9 -35.4 -272.7 -48.1C-260.4 -60.8 -235.2 -68.5 -230.2 -83.8C-225.3 -99.1 -240.6 -122.1 -238.7 -137.8C-236.8 -153.5 -217.8 -162 -203 -170.3C-188.2 -178.6 -177.8 -186.7 -169.9 -202.5C-162.1 -218.3 -156.9 -241.8 -141.7 -245.5C-126.6 -249.2 -101.4 -233.3 -84 -230.8C-66.6 -228.4 -56.9 -239.5 -44.2 -250.5C-31.5 -261.5 -15.7 -272.5 0 -283.5L0 0Z" fill="#ae89f9"></path><path d="M-226.8 0C-227.4 -14.2 -227.9 -28.3 -218.1 -38.5C-208.3 -48.6 -188.1 -54.8 -184.2 -67C-180.2 -79.3 -192.5 -97.7 -191 -110.3C-189.5 -122.8 -174.2 -129.6 -162.4 -136.3C-150.6 -142.9 -142.2 -149.4 -135.9 -162C-129.7 -174.6 -125.5 -193.4 -113.4 -196.4C-101.3 -199.4 -81.1 -186.6 -67.2 -184.6C-53.3 -182.7 -45.5 -191.6 -35.3 -200.4C-25.2 -209.2 -12.6 -218 0 -226.8L0 0Z" fill="#9369f6"></path><path d="M-170.1 0C-170.5 -10.6 -171 -21.2 -163.6 -28.8C-156.2 -36.5 -141.1 -41.1 -138.1 -50.3C-135.2 -59.5 -144.3 -73.3 -143.2 -82.7C-142.1 -92.1 -130.7 -97.2 -121.8 -102.2C-112.9 -107.2 -106.7 -112 -102 -121.5C-97.3 -131 -94.1 -145.1 -85 -147.3C-75.9 -149.5 -60.9 -140 -50.4 -138.5C-40 -137 -34.1 -143.7 -26.5 -150.3C-18.9 -156.9 -9.4 -163.5 0 -170.1L0 0Z" fill="#7248f4"></path><path d="M-113.4 0C-113.7 -7.1 -114 -14.2 -109.1 -19.2C-104.2 -24.3 -94.1 -27.4 -92.1 -33.5C-90.1 -39.6 -96.2 -48.8 -95.5 -55.1C-94.7 -61.4 -87.1 -64.8 -81.2 -68.1C-75.3 -71.5 -71.1 -74.7 -68 -81C-64.8 -87.3 -62.8 -96.7 -56.7 -98.2C-50.6 -99.7 -40.6 -93.3 -33.6 -92.3C-26.6 -91.3 -22.8 -95.8 -17.7 -100.2C-12.6 -104.6 -6.3 -109 0 -113.4L0 0Z" fill="#4324f1"></path><path d="M-56.7 0C-56.8 -3.5 -57 -7.1 -54.5 -9.6C-52.1 -12.2 -47 -13.7 -46 -16.8C-45.1 -19.8 -48.1 -24.4 -47.7 -27.6C-47.4 -30.7 -43.6 -32.4 -40.6 -34.1C-37.6 -35.7 -35.6 -37.3 -34 -40.5C-32.4 -43.7 -31.4 -48.4 -28.3 -49.1C-25.3 -49.8 -20.3 -46.7 -16.8 -46.2C-13.3 -45.7 -11.4 -47.9 -8.8 -50.1C-6.3 -52.3 -3.1 -54.5 0 -56.7L0 0Z" fill="#1207ef"></path></g><g transform="translate(0, 0)"><path d="M453.6 0C445.8 25.5 438.1 50.9 432.3 76.2C426.6 101.5 422.8 126.7 411.6 149.8C400.4 172.9 381.8 194 358.5 207C335.3 220 307.4 225.1 296.5 248.8C285.5 272.4 291.6 314.8 275.1 327.9C258.7 340.9 219.8 324.8 199 344.7C178.2 364.6 175.6 420.6 155.1 426.2C134.7 431.8 96.4 386.9 67.5 383.1C38.7 379.2 19.4 416.4 0 453.6L0 0Z" fill="#f2ebfc"></path><path d="M396.9 0C390.1 22.3 383.3 44.6 378.3 66.7C373.2 88.8 369.9 110.9 360.1 131.1C350.3 151.3 334.1 169.7 313.7 181.1C293.4 192.5 269 196.9 259.4 217.7C249.8 238.4 255.1 275.4 240.7 286.9C226.3 298.3 192.3 284.2 174.1 301.6C156 319 153.6 368 135.7 372.9C117.8 377.8 84.3 338.6 59.1 335.2C33.9 331.8 16.9 364.4 0 396.9L0 0Z" fill="#ddcafb"></path><path d="M340.2 0C334.4 19.1 328.6 38.2 324.2 57.2C319.9 76.2 317.1 95 308.7 112.4C300.3 129.7 286.3 145.5 268.9 155.2C251.5 165 230.5 168.8 222.3 186.6C214.1 204.3 218.7 236.1 206.3 245.9C194 255.7 164.8 243.6 149.3 258.5C133.7 273.4 131.7 315.5 116.3 319.7C101 323.8 72.3 290.2 50.7 287.3C29 284.4 14.5 312.3 0 340.2L0 0Z" fill="#c7a9fa"></path><path d="M283.5 0C278.6 15.9 273.8 31.8 270.2 47.6C266.6 63.5 264.2 79.2 257.2 93.6C250.2 108.1 238.6 121.2 224.1 129.4C209.6 137.5 192.1 140.7 185.3 155.5C178.5 170.3 182.2 196.7 171.9 204.9C161.7 213.1 137.4 203 124.4 215.4C111.4 227.9 109.7 262.9 97 266.4C84.2 269.9 60.2 241.8 42.2 239.4C24.2 237 12.1 260.3 0 283.5L0 0Z" fill="#ae89f9"></path><path d="M226.8 0C222.9 12.7 219 25.5 216.2 38.1C213.3 50.8 211.4 63.4 205.8 74.9C200.2 86.5 190.9 97 179.3 103.5C167.6 110 153.7 112.5 148.2 124.4C142.8 136.2 145.8 157.4 137.6 163.9C129.3 170.5 109.9 162.4 99.5 172.3C89.1 182.3 87.8 210.3 77.6 213.1C67.3 215.9 48.2 193.5 33.8 191.5C19.4 189.6 9.7 208.2 0 226.8L0 0Z" fill="#9369f6"></path><path d="M170.1 0C167.2 9.5 164.3 19.1 162.1 28.6C160 38.1 158.5 47.5 154.3 56.2C150.1 64.8 143.2 72.7 134.5 77.6C125.7 82.5 115.3 84.4 111.2 93.3C107.1 102.2 109.3 118 103.2 123C97 127.9 82.4 121.8 74.6 129.3C66.8 136.7 65.8 157.7 58.2 159.8C50.5 161.9 36.1 145.1 25.3 143.7C14.5 142.2 7.3 156.2 0 170.1L0 0Z" fill="#7248f4"></path><path d="M113.4 0C111.5 6.4 109.5 12.7 108.1 19.1C106.6 25.4 105.7 31.7 102.9 37.5C100.1 43.2 95.4 48.5 89.6 51.7C83.8 55 76.8 56.3 74.1 62.2C71.4 68.1 72.9 78.7 68.8 82C64.7 85.2 54.9 81.2 49.8 86.2C44.6 91.1 43.9 105.2 38.8 106.6C33.7 107.9 24.1 96.7 16.9 95.8C9.7 94.8 4.8 104.1 0 113.4L0 0Z" fill="#4324f1"></path><path d="M56.7 0C55.7 3.2 54.8 6.4 54 9.5C53.3 12.7 52.8 15.8 51.4 18.7C50 21.6 47.7 24.2 44.8 25.9C41.9 27.5 38.4 28.1 37.1 31.1C35.7 34.1 36.4 39.3 34.4 41C32.3 42.6 27.5 40.6 24.9 43.1C22.3 45.6 21.9 52.6 19.4 53.3C16.8 54 12 48.4 8.4 47.9C4.8 47.4 2.4 52.1 0 56.7L0 0Z" fill="#1207ef"></path></g></svg>